<svg width="48" height="48" viewBox="0 0 48 48" fill="none" xmlns="http://www.w3.org/2000/svg">
<g clip-path="url(#clip0_560_1551)">
<path d="M0 48L4.128 35.6168C2.03338 32.0938 0.827586 27.9823 0.827586 23.5862C0.827586 10.56 11.3876 0 24.4138 0C37.44 0 48 10.56 48 23.5862C48 36.6124 37.44 47.1724 24.4138 47.1724C20.4505 47.1724 16.7181 46.1901 13.44 44.4637L0 48Z" fill="#2CB742"/>
<path d="M39.7358 31.3202C38.6391 29.2478 34.595 26.8778 34.595 26.8778C33.6799 26.3561 32.5758 26.2978 32.0541 27.2278C32.0541 27.2278 30.7399 28.8036 30.4058 29.0303C28.8791 30.0644 27.4649 30.0244 26.0374 28.5969L22.7199 25.2795L19.4024 21.962C17.9749 20.5346 17.9349 19.1204 18.9691 17.5938C19.1957 17.2596 20.7716 15.9455 20.7716 15.9455C21.7016 15.423 21.6432 14.3197 21.1216 13.4047C21.1216 13.4047 18.7516 9.36058 16.6791 8.26393C15.7974 7.79727 14.7149 7.9606 14.0099 8.66559L12.5449 10.1306C7.89737 14.778 10.1857 20.0246 14.8332 24.672L19.0807 28.9194L23.3282 33.1669C27.9758 37.8143 33.2224 40.1026 37.87 35.4552L39.335 33.9902C40.04 33.2835 40.2025 32.201 39.7358 31.3202Z" fill="white"/>
</g>
<defs>
<clipPath id="clip0_560_1551">
<rect width="48" height="48" fill="white"/>
</clipPath>
</defs>
</svg>
