<svg width="243" height="210" viewBox="0 0 243 210" fill="none" xmlns="http://www.w3.org/2000/svg">
<circle cx="122.048" cy="105.048" r="91.9524" fill="white" stroke="#231F20" stroke-width="2"/>
<circle cx="122.048" cy="105.048" r="76.4604" fill="white" stroke="#231F20" stroke-width="2"/>
<path opacity="0.23" d="M121.747 180.283C131.745 180.235 141.633 178.239 150.846 174.409C160.059 170.579 168.417 164.99 175.443 157.962C182.468 150.934 188.024 142.604 191.793 133.447C195.562 124.291 197.47 114.487 197.408 104.597C197.347 94.7059 195.316 84.9215 191.433 75.8022C187.55 66.6829 181.891 58.4073 174.777 51.4478C167.664 44.4883 159.237 38.9813 149.977 35.2411C140.716 31.501 130.804 29.6009 120.806 29.6495L120.959 54.1239C127.708 54.0912 134.399 55.3738 140.651 57.8986C146.902 60.4234 152.591 64.1409 157.392 68.8388C162.194 73.5368 166.015 79.1233 168.636 85.2792C171.257 91.4352 172.628 98.0401 172.669 104.717C172.711 111.394 171.423 118.011 168.879 124.192C166.335 130.373 162.584 135.997 157.841 140.741C153.099 145.485 147.456 149.258 141.237 151.843C135.018 154.429 128.343 155.776 121.594 155.809L121.747 180.283Z" fill="#EF1C2B"/>
<path d="M74.1165 78.9448L62.383 72.6013" stroke="#231F20" stroke-width="2"/>
<path d="M166.956 78.9448L178.689 72.6013" stroke="#231F20" stroke-width="2"/>
<path d="M74.1165 133.424L62.383 139.768" stroke="#231F20" stroke-width="2"/>
<path d="M166.956 133.424L178.689 139.768" stroke="#231F20" stroke-width="2"/>
<path d="M95.4565 57.7787L86.9256 47.5251" stroke="#231F20" stroke-width="2"/>
<path d="M95.4565 154.232L86.9256 164.486" stroke="#231F20" stroke-width="2"/>
<path d="M147.215 57.7787L155.746 47.5251" stroke="#231F20" stroke-width="2"/>
<path d="M147.215 154.232L155.746 164.486" stroke="#231F20" stroke-width="2"/>
<path d="M122.748 37.5152L122.748 50.8536" stroke="#231F20" stroke-width="2"/>
<path d="M122.748 157.886L122.748 171.224" stroke="#231F20" stroke-width="2"/>
<path d="M69.1917 104.41L55.8532 104.41" stroke="#231F20" stroke-width="2"/>
<path d="M189.562 104.41L176.224 104.41" stroke="#231F20" stroke-width="2"/>
<path d="M92.3151 113.247C91.4603 113.247 90.6795 113.189 89.9726 113.074C89.2822 112.975 88.748 112.868 88.3699 112.753V111.397H91.822C92.8741 111.397 93.6467 111.151 94.1398 110.657C94.6494 110.148 94.9042 109.367 94.9042 108.315C94.9042 107.148 94.6494 106.301 94.1398 105.775C93.6467 105.233 92.8741 104.961 91.822 104.961H89.8493V103.014H91.5754C92.496 103.014 93.1946 102.767 93.6713 102.274C94.1645 101.781 94.4111 101.041 94.4111 100.055C94.4111 99.1833 94.1809 98.5175 93.7207 98.0573C93.2604 97.5805 92.6275 97.3422 91.822 97.3422H88.6164V95.986C88.9945 95.8545 89.5288 95.7394 90.2192 95.6408C90.9261 95.5422 91.7069 95.4928 92.5617 95.4928C94.107 95.4928 95.2905 95.9038 96.1125 96.7257C96.9508 97.5312 97.37 98.6408 97.37 100.055C97.37 100.975 97.1481 101.748 96.7043 102.372C96.2604 102.997 95.7015 103.482 95.0275 103.827V103.926C95.6029 104.107 96.1043 104.419 96.5317 104.863C96.9591 105.307 97.2878 105.833 97.518 106.441C97.7481 107.033 97.8632 107.657 97.8632 108.315C97.8632 109.91 97.4111 111.134 96.507 111.989C95.6193 112.827 94.222 113.247 92.3151 113.247ZM104.634 113.247C103.565 113.247 102.62 112.975 101.798 112.433C100.992 111.874 100.359 110.945 99.8992 109.647C99.4389 108.348 99.2088 106.589 99.2088 104.37C99.2088 102.15 99.4389 100.4 99.8992 99.1176C100.359 97.8189 100.992 96.8901 101.798 96.3312C102.62 95.7723 103.565 95.4928 104.634 95.4928C105.702 95.4928 106.639 95.7723 107.445 96.3312C108.266 96.8901 108.908 97.8189 109.368 99.1176C109.828 100.4 110.058 102.15 110.058 104.37C110.058 106.589 109.828 108.348 109.368 109.647C108.908 110.945 108.266 111.874 107.445 112.433C106.639 112.975 105.702 113.247 104.634 113.247ZM104.634 111.521C104.913 111.521 105.192 111.422 105.472 111.225C105.768 111.011 106.039 110.641 106.286 110.115C106.532 109.589 106.729 108.866 106.877 107.945C107.025 107.008 107.099 105.816 107.099 104.37C107.099 102.923 107.025 101.74 106.877 100.819C106.729 99.882 106.532 99.1504 106.286 98.6244C106.039 98.0984 105.768 97.7367 105.472 97.5394C105.192 97.3257 104.913 97.2189 104.634 97.2189C104.354 97.2189 104.066 97.3257 103.771 97.5394C103.491 97.7367 103.228 98.0984 102.981 98.6244C102.735 99.1504 102.538 99.882 102.39 100.819C102.242 101.74 102.168 102.923 102.168 104.37C102.168 105.816 102.242 107.008 102.39 107.945C102.538 108.866 102.735 109.589 102.981 110.115C103.228 110.641 103.491 111.011 103.771 111.225C104.066 111.422 104.354 111.521 104.634 111.521ZM117.339 113L118.202 100.671H121.408L124.194 108.192H124.293L127.079 100.671H130.285L131.148 113H128.312L127.769 105.233H127.671L125.476 111.151H123.01L120.816 105.233H120.717L120.175 113H117.339ZM133.371 113V100.671H136.206V108.192H136.33L139.535 100.671H142.741V113H139.905V105.233H139.782L136.33 113H133.371ZM145.324 113V100.671H148.283V105.849H151.612V100.671H154.571V113H151.612V107.699H148.283V113H145.324Z" fill="#EF1C2B"/>
</svg>
