<svg width="61" height="98" viewBox="0 0 61 98" fill="none" xmlns="http://www.w3.org/2000/svg">
<ellipse cx="15" cy="29" rx="1" ry="2" fill="#231F20"/>
<ellipse cx="24" cy="32" rx="1" ry="2" fill="#231F20"/>
<path d="M18.0175 31C15.4631 31.2752 12.3191 35.7248 19 36" stroke="#231F20"/>
<path d="M15 39C15.4728 39.8773 17.5346 41.4781 22 40.8626" stroke="#231F20"/>
<path d="M58.5 21C58.5 26.2029 53.8449 30.5 48 30.5C42.1551 30.5 37.5 26.2029 37.5 21C37.5 15.7971 42.1551 11.5 48 11.5C53.8449 11.5 58.5 15.7971 58.5 21Z" stroke="#231F20"/>
<path d="M10 16.588C10.8549 15.5622 13.8945 13.7535 19.2138 14.7254C23.6212 11.8746 25.4196 11.054 25.7679 11L22.3484 15.6162C27.4144 17.0469 37.3564 34 37.3564 34C36.9317 30.9134 42.6278 27.8161 45 34" stroke="#231F20"/>
<path d="M57.7297 60.608C54.7544 52.6057 43.7618 48.9846 37.3565 46.6398C36.8388 51.4809 36.8044 52.5242 32.5717 56.2819C25.0801 60.8051 20.5939 56.2819 20.2969 53.7767C20.2141 53.0784 20.076 49.188 20.2969 47.2067C16.3857 45.967 13.2017 43.5094 12.0179 41.3396C5.75508 41.742 1.00002 41.3396 1 50.5321C1 50.5321 1 62.7883 1 70.6415C1.00001 75.8361 3.1933 79.2383 8.26938 82.5609C14.9378 89.1456 28.2568 92.0699 28.2568 92.0699C28.2568 92.0699 28.2568 92.0699 38.8964 95.4908C47.5309 98.9834 58.4248 96.4133 59.0854 87.7883C59.1836 86.5062 61.7922 70.1089 57.7297 60.608Z" fill="#EF1C2B"/>
<path d="M44.2641 11.5012C39.3602 5.69556 14.4175 -2.09282 10.4174 17.1281M10.4174 17.1281C2.1481 7.21393 17.6291 -5.11176 26.283 4.44513M10.4174 17.1281C9.2702 39.4564 10.5681 38.2331 12.0179 41.3396M46.513 31.2894C45.327 37.3546 40.601 39.6737 37.3565 41.3396M37.3565 41.3396C37.3565 45.386 37.3565 46.559 37.3565 46.6398M37.3565 41.3396C37.3565 41.3396 25.7162 48.9244 20.2969 47.2067M37.3565 46.6398C43.7618 48.9846 54.7544 52.6057 57.7297 60.608C61.7922 70.1089 59.1836 86.5062 59.0854 87.7883C58.4248 96.4133 47.5309 98.9834 38.8964 95.4908M37.3565 46.6398C36.8388 51.4809 36.8044 52.5242 32.5717 56.2819C25.0801 60.8051 20.5939 56.2819 20.2969 53.7767C20.2141 53.0784 20.076 49.188 20.2969 47.2067M1 70.6415C0.999999 60.9702 0.999999 60.2034 1 50.5321M1 70.6415C1.00001 75.8361 3.1933 79.2383 8.26938 82.5609M1 70.6415C1 62.7883 1 50.5321 1 50.5321M1 50.5321C1.00002 41.3396 5.75508 41.742 12.0179 41.3396M12.0179 41.3396C13.2017 43.5094 16.3857 45.967 20.2969 47.2067M23.0577 28.4132C24.1503 28.0283 26.7197 27.7518 28.2568 29.7255M8.26938 82.5609C14.9378 89.1456 28.2568 92.0699 28.2568 92.0699C28.2568 92.0699 28.2568 92.0699 38.8964 95.4908M8.26938 82.5609V65.5684M38.8964 95.4908V76.1524" stroke="#231F20"/>
<path d="M18 26C17.6434 25.3333 16.4439 24 14.4987 24C12.5535 24 12.9101 24 13.3316 24" stroke="#231F20"/>
</svg>
