<svg width="219" height="189" viewBox="0 0 219 189" fill="none" xmlns="http://www.w3.org/2000/svg">
<g clip-path="url(#clip0_748_1166)">
<mask id="mask0_748_1166" style="mask-type:alpha" maskUnits="userSpaceOnUse" x="-22" y="-14" width="261" height="211">
<rect width="244.176" height="210.145" transform="matrix(1 0 0.0732044 0.997317 -21.4016 -13.4126)" fill="#D9D9D9"/>
</mask>
<g mask="url(#mask0_748_1166)">
<path fill-rule="evenodd" clip-rule="evenodd" d="M69.0621 171.923C80.7809 176.798 95.6273 179.236 113.601 179.236C131.575 179.236 146.064 176.798 157.067 171.923C168.07 167.047 173.289 160.752 172.722 153.039C172.349 147.945 169.606 143.506 164.496 139.721C159.386 135.937 152.426 132.954 143.618 130.771L138.986 147.362C141.922 148.09 144.617 149 147.071 150.091C149.525 151.183 151.208 152.165 152.12 153.039C150.087 155.367 145.107 157.405 137.181 159.151C129.254 160.898 120.967 161.771 112.319 161.771C103.672 161.771 95.2987 160.898 87.2009 159.151C79.103 157.405 73.8665 155.367 71.4912 153.039C72.2749 152.165 73.8137 151.183 76.1075 150.091C78.4013 149 80.9628 148.09 83.792 147.362L76.7241 130.771C68.2365 132.954 61.6728 135.937 57.0332 139.721C52.3935 143.506 50.2606 147.945 50.6345 153.039C51.2007 160.752 57.3432 167.047 69.0621 171.923Z" fill="white"/>
<path d="M147.423 149.186C145.21 148.201 142.814 147.365 140.238 146.674L144.345 131.965C152.641 134.105 159.154 136.965 163.936 140.506C168.849 144.144 171.376 148.314 171.722 153.039C172.244 160.142 167.49 166.183 156.605 171.007C145.764 175.81 131.423 178.239 113.528 178.239C95.6335 178.239 80.9356 175.81 69.3901 171.007C57.7968 166.183 52.1559 160.142 51.6345 153.039C51.2882 148.321 53.2382 144.152 57.702 140.511C62.0489 136.966 68.1875 134.105 76.173 131.965L82.4386 146.674C79.964 147.365 77.691 148.201 75.6223 149.186C73.3156 150.283 71.6335 151.329 70.7219 152.345L70.107 153.03L70.8143 153.723C72.1592 155.042 74.2233 156.199 76.8953 157.239C79.5851 158.285 82.9778 159.245 87.0577 160.125C95.2313 161.888 103.677 162.768 112.393 162.768C121.108 162.768 129.466 161.888 137.465 160.126C141.458 159.246 144.741 158.286 147.298 157.24C149.838 156.201 151.745 155.043 152.897 153.723L153.503 153.03L152.788 152.345C151.727 151.329 149.891 150.283 147.423 149.186Z" stroke="#231F20" stroke-width="2"/>
</g>
<path d="M110.406 140.805L111 141.243L111.594 140.805C130.444 126.901 144.566 113.362 153.916 100.178C163.269 86.9898 168 73.9917 168 61.2C168 51.6136 166.278 43.1615 162.803 35.8697C159.352 28.6298 154.91 22.5532 149.469 17.6567C144.041 12.7712 137.929 9.10354 131.139 6.65911C124.373 4.22331 117.658 3 111 3C104.342 3 97.6274 4.22331 90.8613 6.65911C84.0712 9.10354 77.9594 12.7712 72.531 17.6567C67.0905 22.5532 62.6481 28.6298 59.1973 35.8697C55.7218 43.1615 54 51.6136 54 61.2C54 73.9917 58.7311 86.9898 68.0843 100.178C77.4337 113.362 91.5564 126.901 110.406 140.805ZM140.074 88.4363C133.52 98.0403 123.84 108.067 111 118.513C98.1599 108.067 88.48 98.0403 81.926 88.4363C75.2644 78.6748 72 69.6026 72 61.2C72 53.8532 73.3447 47.6529 75.9876 42.5606C78.6675 37.397 81.9526 33.2431 85.8325 30.0745C89.7396 26.8838 93.9611 24.5804 98.4998 23.154C103.094 21.7101 107.258 21 111 21C114.742 21 118.906 21.7101 123.5 23.154C128.039 24.5804 132.26 26.8838 136.167 30.0745C140.047 33.2431 143.333 37.397 146.012 42.5606C148.655 47.6529 150 53.8532 150 61.2C150 69.6026 146.736 78.6748 140.074 88.4363ZM111 77C115.667 77 119.688 75.3265 123.007 72.0071C126.326 68.6877 128 64.6673 128 60C128 55.3327 126.326 51.3123 123.007 47.9929C119.688 44.6735 115.667 43 111 43C106.333 43 102.312 44.6735 98.9929 47.9929C95.6735 51.3123 94 55.3327 94 60C94 64.6673 95.6735 68.6877 98.9929 72.0071C102.312 75.3265 106.333 77 111 77Z" fill="white" stroke="#231F20" stroke-width="2"/>
<path d="M129 59.5128C129 69.1606 120.966 77.0256 111 77.0256C101.034 77.0256 93 69.1606 93 59.5128C93 49.8651 101.034 42 111 42C120.966 42 129 49.8651 129 59.5128Z" fill="#EF1C2B" stroke="#231F20" stroke-width="2"/>
</g>
<defs>
<clipPath id="clip0_748_1166">
<rect width="219" height="188.493" fill="white"/>
</clipPath>
</defs>
</svg>
