<svg width="26" height="25" viewBox="0 0 26 25" fill="none" xmlns="http://www.w3.org/2000/svg">
<path d="M3 19.25V21.75H23V19.25H3ZM3 5.5H5.75C5.64583 5.3125 5.57792 5.11458 5.54625 4.90625C5.51542 4.69792 5.5 4.47917 5.5 4.25C5.5 3.20833 5.86458 2.32292 6.59375 1.59375C7.32292 0.864583 8.20833 0.5 9.25 0.5C9.875 0.5 10.4529 0.66125 10.9838 0.98375C11.5154 1.30708 11.9792 1.70833 12.375 2.1875L13 3L13.625 2.1875C14 1.6875 14.4583 1.28125 15 0.96875C15.5417 0.65625 16.125 0.5 16.75 0.5C17.7917 0.5 18.6771 0.864583 19.4062 1.59375C20.1354 2.32292 20.5 3.20833 20.5 4.25C20.5 4.47917 20.4842 4.69792 20.4525 4.90625C20.4217 5.11458 20.3542 5.3125 20.25 5.5H23C23.6875 5.5 24.2763 5.745 24.7663 6.235C25.2554 6.72417 25.5 7.3125 25.5 8V21.75C25.5 22.4375 25.2554 23.0263 24.7663 23.5163C24.2763 24.0054 23.6875 24.25 23 24.25H3C2.3125 24.25 1.72417 24.0054 1.235 23.5163C0.745 23.0263 0.5 22.4375 0.5 21.75V8C0.5 7.3125 0.745 6.72417 1.235 6.235C1.72417 5.745 2.3125 5.5 3 5.5ZM3 15.5H23V8H16.625L19.25 11.5625L17.25 13L13 7.25L8.75 13L6.75 11.5625L9.3125 8H3V15.5ZM9.25 5.5C9.60417 5.5 9.90125 5.38042 10.1413 5.14125C10.3804 4.90125 10.5 4.60417 10.5 4.25C10.5 3.89583 10.3804 3.59875 10.1413 3.35875C9.90125 3.11958 9.60417 3 9.25 3C8.89583 3 8.59917 3.11958 8.36 3.35875C8.12 3.59875 8 3.89583 8 4.25C8 4.60417 8.12 4.90125 8.36 5.14125C8.59917 5.38042 8.89583 5.5 9.25 5.5ZM16.75 5.5C17.1042 5.5 17.4013 5.38042 17.6413 5.14125C17.8804 4.90125 18 4.60417 18 4.25C18 3.89583 17.8804 3.59875 17.6413 3.35875C17.4013 3.11958 17.1042 3 16.75 3C16.3958 3 16.0992 3.11958 15.86 3.35875C15.62 3.59875 15.5 3.89583 15.5 4.25C15.5 4.60417 15.62 4.90125 15.86 5.14125C16.0992 5.38042 16.3958 5.5 16.75 5.5Z" fill="#EF1C2B"/>
</svg>
