<svg width="243" height="210" viewBox="0 0 243 210" fill="none" xmlns="http://www.w3.org/2000/svg">
<g clip-path="url(#clip0_748_1170)">
<path d="M55.6902 28.8107C55.6902 30.0557 57.1615 36.2805 58.9723 42.7316L62.3677 54.6153L57.7274 60.0479C51.0499 68.0836 49.4654 68.8758 40.6375 68.8758C36.3367 68.8758 31.9227 69.3285 30.791 70.0076C26.9429 72.0448 24.5662 80.8727 24.5662 93.2091C24.5662 110.299 26.0375 113.242 39.3925 122.749C47.0886 128.181 51.5026 132.256 55.1243 137.349C60.8964 145.497 69.4979 153.533 78.3258 159.192C85.7956 164.059 85.9088 164.059 86.9274 171.302C88.3987 182.733 87.2669 182.054 106.734 182.054H123.823L125.068 178.659C126.54 174.697 126.766 174.697 142.158 172.887C154.495 171.528 155.061 171.755 157.098 177.866L158.343 181.488L175.433 181.828C195.805 182.167 193.654 184.204 197.276 161.795C199.653 147.195 199.879 146.403 204.859 139.725C231.569 103.735 217.875 58.2371 173.961 37.1859C148.27 24.8495 117.259 24.3968 88.8514 36.1673C85.5692 37.5254 85.0033 37.4122 81.4948 34.8091C75.3832 30.1688 69.1584 27.7921 62.2545 27.2262C56.3693 26.7735 55.6902 26.9999 55.6902 28.8107ZM73.1196 35.4882C77.7599 38.9967 83.0793 46.6929 85.6824 53.4836C87.4933 58.1239 87.7196 58.3502 92.5863 58.3502C97.1134 58.3502 97.5661 58.1239 96.8871 55.9735C95.8685 52.5781 93.1522 47.3719 90.5491 43.6371C89.3041 41.8262 88.5119 40.1285 88.8514 39.789C89.1909 39.4494 93.8313 37.7518 99.1506 35.9409C123.371 27.7921 148.836 29.2634 171.698 40.0154C184.374 45.9006 193.994 53.144 200.785 61.7456C219.799 86.0789 220.025 114.034 201.351 138.82C196.823 144.705 196.597 145.724 193.768 162.135L190.938 179.225L175.999 179.564L161.059 179.904L160.041 176.282C159.588 174.245 157.89 171.642 156.419 170.51C153.816 168.586 152.571 168.586 141.14 169.718C126.766 171.189 124.276 172.094 122.352 176.621L120.994 179.904L106.168 179.564L91.4545 179.225L89.9832 170.736C88.5119 161.682 88.3987 161.569 79.0049 155.684C71.422 150.93 62.9336 142.894 57.3879 135.198C54.2189 130.671 49.4654 126.144 44.4855 122.522C38.9398 118.674 36.7894 116.411 37.2421 115.279C40.8638 106.111 41.3165 103.622 41.3165 93.2091C41.3165 85.8525 40.7507 80.1936 39.6189 77.0246L37.808 72.2711H43.5801C50.3708 72.2711 54.6716 69.7812 59.6514 62.8774L63.0468 58.1239L64.0654 61.2928C64.7444 62.9905 65.8762 64.3487 66.6685 64.3487C67.4607 64.3487 68.1398 64.2355 68.1398 64.0091C68.1398 63.896 66.1026 56.4262 63.6127 47.3719C61.1227 38.3177 59.0855 30.6216 59.0855 30.1688C59.0855 28.5844 69.0452 32.4324 73.1196 35.4882ZM36.6762 78.8355C38.6003 84.3812 38.3739 103.282 36.3367 108.941C34.1863 114.939 32.2623 115.279 29.9987 109.959C27.1693 103.848 27.2824 82.5704 29.9987 76.3456C31.5832 72.7239 32.2623 72.2711 33.5072 73.4029C34.4127 74.082 35.884 76.5719 36.6762 78.8355Z" fill="#231F20"/>
<path d="M36.6762 78.8355C38.6003 84.3812 38.3739 103.282 36.3367 108.941C34.1863 114.939 32.2623 115.279 29.9987 109.959C27.1693 103.848 27.2824 82.5704 29.9987 76.3456C31.5832 72.7239 32.2623 72.2711 33.5072 73.4029C34.4127 74.082 35.884 76.5719 36.6762 78.8355Z" fill="#EF1C2B"/>
<path d="M73.1196 35.4882C77.7599 38.9967 83.0793 46.6929 85.6824 53.4836C87.4933 58.1239 87.7196 58.3502 92.5863 58.3502C97.1134 58.3502 97.5661 58.1239 96.8871 55.9735C95.8685 52.5781 93.1522 47.3719 90.5491 43.6371C89.3041 41.8262 88.5119 40.1285 88.8514 39.789C89.1909 39.4494 93.8313 37.7518 99.1506 35.9409C123.371 27.7921 148.836 29.2634 171.698 40.0154C184.374 45.9006 193.994 53.144 200.785 61.7456C219.799 86.0789 220.025 114.034 201.351 138.82C196.823 144.705 196.597 145.724 193.768 162.135L190.938 179.225L175.999 179.564L161.059 179.904L160.041 176.282C159.588 174.245 157.89 171.642 156.419 170.51C153.816 168.586 152.571 168.586 141.14 169.718C126.766 171.189 124.276 172.094 122.352 176.621L120.994 179.904L106.168 179.564L91.4545 179.225L89.9832 170.736C88.5119 161.682 88.3987 161.569 79.0049 155.684C71.422 150.93 62.9336 142.894 57.3879 135.198C54.2189 130.671 49.4654 126.144 44.4855 122.522C38.9398 118.674 36.7894 116.411 37.2421 115.279C40.8638 106.111 41.3165 103.622 41.3165 93.2091C41.3165 85.8525 40.7507 80.1936 39.6189 77.0246L37.808 72.2711H43.5801C50.3708 72.2711 54.6716 69.7812 59.6514 62.8774L63.0468 58.1239L64.0654 61.2928C64.7444 62.9905 65.8762 64.3487 66.6685 64.3487C67.4607 64.3487 68.1398 64.2355 68.1398 64.0091C68.1398 63.896 66.1026 56.4262 63.6127 47.3719C61.1227 38.3177 59.0855 30.6216 59.0855 30.1688C59.0855 28.5844 69.0452 32.4324 73.1196 35.4882Z" fill="white"/>
<ellipse cx="32.9458" cy="93.0325" rx="5.36764" ry="20.9338" fill="#EF1C2B"/>
</g>
<defs>
<clipPath id="clip0_748_1170">
<rect width="194.667" height="155.054" fill="white" transform="translate(24 27)"/>
</clipPath>
</defs>
</svg>
