<svg width="98" height="51" viewBox="0 0 98 51" fill="none" xmlns="http://www.w3.org/2000/svg">
<path d="M0.0762852 50.5345C1.80427 40.1256 21.831 20.9843 38.0302 13.8132C55.5211 6.02297 66.602 4.89745 90.9955 8.6019C90.2858 7.25571 89.5895 6.21708 89.1286 5.18615C88.5538 4.03337 87.9578 2.80903 87.6684 1.5711C87.5623 1.21326 88.0134 0.37756 88.4202 0.178262C88.827 -0.0210358 89.6889 0.26705 89.9377 0.582309C92.2404 3.63434 94.4003 6.72895 96.6529 9.87384C97.3491 10.9125 97.1757 11.899 96.0691 12.6188C91.7716 15.1476 87.4954 17.748 83.1054 20.2265C82.099 20.7605 80.73 20.8575 79.3032 21.2832C79.5322 17.8652 82.2064 17.4567 83.8278 16.1159C85.4993 14.6823 87.4195 13.564 89.6617 11.9601C82.5523 9.71929 75.8172 9.00266 69.0013 9.32285C44.005 10.3944 24.0465 21.6475 8.14794 40.5696C6.08906 43.0536 4.32907 45.76 2.36274 48.2942C1.68412 48.8863 1.07683 49.457 0.0762852 50.5345Z" fill="#818284"/>
</svg>
